<svg preserveAspectRatio="none" width="100%" height="100%" overflow="visible" style="display: block;" viewBox="0 0 47 39" fill="none" xmlns="http://www.w3.org/2000/svg">
<path id="Vector" d="M46.0236 19.1676C46.0215 17.1356 45.4441 15.1457 44.3582 13.4282C43.2722 11.7107 41.7221 10.3359 39.8873 9.46273V9.19618C39.8855 7.21957 39.2475 5.29603 38.0676 3.71018C36.8877 2.12433 35.2287 0.960422 33.336 0.39067C31.4433 -0.179082 29.4174 -0.124407 27.5582 0.546603C25.6989 1.21761 24.1051 2.46931 23.0125 4.11649C21.9199 2.46931 20.326 1.21761 18.4668 0.546603C16.6076 -0.124407 14.5817 -0.179082 12.689 0.39067C10.7963 0.960422 9.13725 2.12433 7.95738 3.71018C6.77751 5.29603 6.13949 7.21957 6.13772 9.19618V9.46273C4.30132 10.3335 2.74972 11.7075 1.66324 13.4251C0.576753 15.1427 0 17.1333 0 19.1657C0 21.1981 0.576753 23.1888 1.66324 24.9064C2.74972 26.624 4.30132 27.998 6.13772 28.8687V29.1391C6.13949 31.1157 6.77751 33.0392 7.95738 34.6251C9.13725 36.2109 10.7963 37.3749 12.689 37.9446C14.5817 38.5144 16.6076 38.4597 18.4668 37.7887C20.326 37.1177 21.9199 35.866 23.0125 34.2188C24.1051 35.866 25.6989 37.1177 27.5582 37.7887C29.4174 38.4597 31.4433 38.5144 33.336 37.9446C35.2287 37.3749 36.8877 36.2109 38.0676 34.6251C39.2475 33.0392 39.8855 31.1157 39.8873 29.1391V28.8687C41.7218 27.9962 43.2718 26.622 44.3577 24.9052C45.4437 23.1884 46.0213 21.1991 46.0236 19.1676ZM15.3421 35.2754C13.8291 35.2752 12.3694 34.7159 11.2435 33.7051C10.1177 32.6942 9.40495 31.3031 9.24229 29.7987C9.73838 29.8695 10.2388 29.9054 10.7399 29.9061H12.274C12.6809 29.9061 13.0711 29.7445 13.3588 29.4568C13.6464 29.1691 13.8081 28.7789 13.8081 28.3721C13.8081 27.9652 13.6464 27.575 13.3588 27.2873C13.0711 26.9996 12.6809 26.838 12.274 26.838H10.7399C8.92888 26.8401 7.1755 26.2013 5.79021 25.0348C4.40492 23.8682 3.47709 22.2491 3.17098 20.4641C2.86487 18.6791 3.20023 16.8434 4.11769 15.2819C5.03514 13.7205 6.47551 12.534 8.18379 11.9326C8.48268 11.8268 8.74145 11.6309 8.92448 11.372C9.10751 11.1131 9.20581 10.8038 9.20586 10.4867V9.19618C9.20586 7.56874 9.85236 6.00795 11.0031 4.85718C12.1539 3.7064 13.7147 3.0599 15.3421 3.0599C16.9696 3.0599 18.5304 3.7064 19.6811 4.85718C20.8319 6.00795 21.4784 7.56874 21.4784 9.19618V22.2856C19.7939 20.7705 17.6078 19.933 15.3421 19.9347C14.9353 19.9347 14.5451 20.0963 14.2574 20.384C13.9697 20.6717 13.8081 21.0619 13.8081 21.4687C13.8081 21.8756 13.9697 22.2658 14.2574 22.5535C14.5451 22.8412 14.9353 23.0028 15.3421 23.0028C16.9696 23.0028 18.5304 23.6493 19.6811 24.8001C20.8319 25.9509 21.4784 27.5117 21.4784 29.1391C21.4784 30.7665 20.8319 32.3273 19.6811 33.4781C18.5304 34.6289 16.9696 35.2754 15.3421 35.2754ZM35.2851 26.838H33.751C33.3441 26.838 32.9539 26.9996 32.6662 27.2873C32.3785 27.575 32.2169 27.9652 32.2169 28.3721C32.2169 28.7789 32.3785 29.1691 32.6662 29.4568C32.9539 29.7445 33.3441 29.9061 33.751 29.9061H35.2851C35.7862 29.9054 36.2866 29.8695 36.7827 29.7987C36.6552 30.9774 36.1891 32.0939 35.4406 33.0133C34.6921 33.9327 33.6933 34.6156 32.5649 34.9793C31.4365 35.3431 30.227 35.3723 29.0824 35.0632C27.9378 34.7542 26.9073 34.1202 26.1154 33.2379C25.3235 32.3556 24.8041 31.2629 24.6201 30.0917C24.436 28.9205 24.5952 27.7211 25.0783 26.6385C25.5615 25.5558 26.3479 24.6363 27.3425 23.9911C28.3371 23.3459 29.4973 23.0026 30.6828 23.0028C31.0897 23.0028 31.4799 22.8412 31.7676 22.5535C32.0553 22.2658 32.2169 21.8756 32.2169 21.4687C32.2169 21.0619 32.0553 20.6717 31.7676 20.384C31.4799 20.0963 31.0897 19.9347 30.6828 19.9347C28.4172 19.933 26.2311 20.7705 24.5466 22.2856V9.19618C24.5466 7.56874 25.1931 6.00795 26.3438 4.85718C27.4946 3.7064 29.0554 3.0599 30.6828 3.0599C32.3103 3.0599 33.8711 3.7064 35.0219 4.85718C36.1726 6.00795 36.8191 7.56874 36.8191 9.19618V10.4867C36.8192 10.8038 36.9175 11.1131 37.1005 11.372C37.2835 11.6309 37.5423 11.8268 37.8412 11.9326C39.5495 12.534 40.9898 13.7205 41.9073 15.2819C42.8248 16.8434 43.1601 18.6791 42.854 20.4641C42.5479 22.2491 41.6201 23.8682 40.2348 25.0348C38.8495 26.2013 37.0961 26.8401 35.2851 26.838ZM38.3532 16.8665C38.3532 17.2734 38.1916 17.6636 37.9039 17.9513C37.6162 18.239 37.226 18.4006 36.8191 18.4006H36.0521C34.2212 18.4006 32.4653 17.6733 31.1707 16.3787C29.8761 15.084 29.1488 13.3282 29.1488 11.4973V10.7303C29.1488 10.3234 29.3104 9.9332 29.5981 9.6455C29.8858 9.35781 30.276 9.19618 30.6828 9.19618C31.0897 9.19618 31.4799 9.35781 31.7676 9.6455C32.0553 9.9332 32.2169 10.3234 32.2169 10.7303V11.4973C32.2169 12.5144 32.621 13.4899 33.3402 14.2092C34.0594 14.9284 35.0349 15.3325 36.0521 15.3325H36.8191C37.226 15.3325 37.6162 15.4941 37.9039 15.7818C38.1916 16.0695 38.3532 16.4597 38.3532 16.8665ZM9.9729 18.4006H9.20586C8.799 18.4006 8.4088 18.239 8.12111 17.9513C7.83342 17.6636 7.67179 17.2734 7.67179 16.8665C7.67179 16.4597 7.83342 16.0695 8.12111 15.7818C8.4088 15.4941 8.799 15.3325 9.20586 15.3325H9.9729C10.99 15.3325 11.9655 14.9284 12.6848 14.2092C13.404 13.4899 13.8081 12.5144 13.8081 11.4973V10.7303C13.8081 10.3234 13.9697 9.9332 14.2574 9.6455C14.5451 9.35781 14.9353 9.19618 15.3421 9.19618C15.749 9.19618 16.1392 9.35781 16.4269 9.6455C16.7146 9.9332 16.8762 10.3234 16.8762 10.7303V11.4973C16.8762 13.3282 16.1489 15.084 14.8543 16.3787C13.5597 17.6733 11.8038 18.4006 9.9729 18.4006Z" fill="var(--fill-0, #A6D74A)"/>
</svg>
