<svg preserveAspectRatio="none" width="100%" height="100%" overflow="visible" style="display: block;" viewBox="0 0 43 36" fill="none" xmlns="http://www.w3.org/2000/svg">
<path id="Vector" opacity="0.2" d="M42.9622 17.6418C42.9628 19.5457 42.373 21.403 41.274 22.9577C40.175 24.5124 38.621 25.6881 36.8259 26.3227V27.6133C36.8259 29.6476 36.0178 31.5986 34.5793 33.037C33.1409 34.4755 31.1899 35.2836 29.1556 35.2836C27.1213 35.2836 25.1703 34.4755 23.7318 33.037C22.2933 31.5986 21.4852 29.6476 21.4852 27.6133C21.4852 29.6476 20.6771 31.5986 19.2386 33.037C17.8002 34.4755 15.8492 35.2836 13.8149 35.2836C11.7806 35.2836 9.82958 34.4755 8.39111 33.037C6.95264 31.5986 6.14452 29.6476 6.14452 27.6133V26.3227C4.34795 25.6895 2.79211 24.5144 1.69157 22.9596C0.591025 21.4047 0 19.5467 0 17.6418C0 15.7369 0.591025 13.8789 1.69157 12.3241C2.79211 10.7692 4.34795 9.59416 6.14452 8.96089V7.67035C6.14452 5.63605 6.95264 3.68506 8.39111 2.24659C9.82958 0.808124 11.7806 0 13.8149 0C15.8492 0 17.8002 0.808124 19.2386 2.24659C20.6771 3.68506 21.4852 5.63605 21.4852 7.67035C21.4852 5.63605 22.2933 3.68506 23.7318 2.24659C25.1703 0.808124 27.1213 0 29.1556 0C31.1899 0 33.1409 0.808124 34.5793 2.24659C36.0178 3.68506 36.8259 5.63605 36.8259 7.67035V8.96089C38.621 9.59553 40.175 10.7712 41.274 12.3259C42.373 13.8806 42.9628 15.7379 42.9622 17.6418Z" fill="var(--fill-0, #A6D74A)"/>
</svg>
