<svg width="68" height="68" viewBox="0 0 68 68" fill="none" xmlns="http://www.w3.org/2000/svg">
<path d="M19.48 35.0249L40.4436 55.9885C40.6383 56.1833 40.8696 56.3378 41.124 56.4432C41.3785 56.5486 41.6513 56.6028 41.9267 56.6028C42.2022 56.6028 42.4749 56.5486 42.7294 56.4432C42.9839 56.3378 43.2151 56.1833 43.4099 55.9885C43.6047 55.7937 43.7592 55.5625 43.8646 55.308C43.97 55.0535 44.0242 54.7808 44.0242 54.5053C44.0242 54.2299 43.97 53.9571 43.8646 53.7026C43.7592 53.4481 43.6047 53.2169 43.4099 53.0221L23.9269 33.5418L43.4099 14.0614C43.8033 13.668 44.0242 13.1345 44.0242 12.5782C44.0242 12.0219 43.8033 11.4884 43.4099 11.0951C43.0165 10.7017 42.483 10.4807 41.9267 10.4807C41.3704 10.4807 40.8369 10.7017 40.4436 11.0951L19.48 32.0586C19.2851 32.2533 19.1305 32.4845 19.025 32.739C18.9195 32.9935 18.8652 33.2663 18.8652 33.5418C18.8652 33.8173 18.9195 34.0901 19.025 34.3446C19.1305 34.599 19.2851 34.8302 19.48 35.0249Z" fill="white"/>
</svg>
