<svg width="68" height="68" viewBox="0 0 68 68" fill="none" xmlns="http://www.w3.org/2000/svg">
<path d="M19.4803 35.0247L40.4438 55.9882C40.6386 56.183 40.8698 56.3375 41.1243 56.4429C41.3788 56.5483 41.6515 56.6026 41.927 56.6026C42.2024 56.6026 42.4752 56.5483 42.7297 56.4429C42.9841 56.3375 43.2154 56.183 43.4101 55.9882C43.6049 55.7935 43.7594 55.5622 43.8648 55.3078C43.9702 55.0533 44.0245 54.7805 44.0245 54.5051C44.0245 54.2296 43.9702 53.9569 43.8648 53.7024C43.7594 53.4479 43.6049 53.2167 43.4101 53.0219L23.9272 33.5415L43.4101 14.0612C43.8035 13.6678 44.0245 13.1343 44.0245 12.578C44.0245 12.0217 43.8035 11.4882 43.4101 11.0948C43.0168 10.7015 42.4833 10.4805 41.927 10.4805C41.3707 10.4805 40.8372 10.7015 40.4438 11.0948L19.4803 32.0584C19.2853 32.2531 19.1307 32.4843 19.0252 32.7388C18.9197 32.9932 18.8654 33.266 18.8654 33.5415C18.8654 33.817 18.9197 34.0898 19.0252 34.3443C19.1307 34.5988 19.2853 34.83 19.4803 35.0247Z" fill="black" fill-opacity="0.5"/>
</svg>
