<svg preserveAspectRatio="none" width="100%" height="100%" overflow="visible" style="display: block;" viewBox="0 0 26 47" fill="none" xmlns="http://www.w3.org/2000/svg">
<path id="Vector" d="M24.5442 24.5442L3.58069 45.5078C3.38592 45.7025 3.15469 45.857 2.90021 45.9625C2.64572 46.0679 2.37297 46.1221 2.09752 46.1221C1.82207 46.1221 1.54932 46.0679 1.29483 45.9625C1.04035 45.857 0.809121 45.7025 0.614348 45.5078C0.419575 45.313 0.265073 45.0818 0.159663 44.8273C0.054253 44.5728 0 44.3001 0 44.0246C0 43.7492 0.054253 43.4764 0.159663 43.2219C0.265073 42.9674 0.419575 42.7362 0.614348 42.5414L20.0973 23.0611L0.614348 3.58069C0.220987 3.18733 -4.14473e-09 2.65382 0 2.09752C4.14474e-09 1.54122 0.220987 1.00771 0.614348 0.614349C1.00771 0.220988 1.54122 4.14474e-09 2.09752 0C2.65382 -4.14474e-09 3.18733 0.220988 3.58069 0.614349L24.5442 21.5779C24.7391 21.7726 24.8938 22.0038 24.9993 22.2583C25.1048 22.5128 25.1591 22.7856 25.1591 23.0611C25.1591 23.3366 25.1048 23.6093 24.9993 23.8638C24.8938 24.1183 24.7391 24.3495 24.5442 24.5442Z" fill="var(--fill-0, black)" fill-opacity="0.5"/>
</svg>
