<svg width="68" height="68" viewBox="0 0 68 68" fill="none" xmlns="http://www.w3.org/2000/svg">
<path d="M47.6028 35.0249L26.6393 55.9885C26.4445 56.1833 26.2133 56.3378 25.9588 56.4432C25.7043 56.5486 25.4316 56.6028 25.1561 56.6028C24.8807 56.6028 24.6079 56.5486 24.3534 56.4432C24.0989 56.3378 23.8677 56.1833 23.6729 55.9885C23.4782 55.7937 23.3237 55.5625 23.2183 55.308C23.1128 55.0535 23.0586 54.7808 23.0586 54.5053C23.0586 54.2299 23.1128 53.9571 23.2183 53.7026C23.3237 53.4481 23.4782 53.2169 23.6729 53.0221L43.1559 33.5418L23.6729 14.0614C23.2796 13.668 23.0586 13.1345 23.0586 12.5782C23.0586 12.0219 23.2796 11.4884 23.6729 11.0951C24.0663 10.7017 24.5998 10.4807 25.1561 10.4807C25.7124 10.4807 26.2459 10.7017 26.6393 11.0951L47.6028 32.0586C47.7977 32.2533 47.9524 32.4845 48.0579 32.739C48.1634 32.9935 48.2177 33.2663 48.2177 33.5418C48.2177 33.8173 48.1634 34.0901 48.0579 34.3446C47.9524 34.599 47.7977 34.8302 47.6028 35.0249Z" fill="white"/>
</svg>
