<svg preserveAspectRatio="none" width="100%" height="100%" overflow="visible" style="display: block;" viewBox="0 0 30 30" fill="none" xmlns="http://www.w3.org/2000/svg">
<path id="Vector" d="M14.625 7.875C13.29 7.875 11.9849 8.27088 10.8749 9.01258C9.76487 9.75428 8.89971 10.8085 8.38881 12.0419C7.87792 13.2753 7.74425 14.6325 8.0047 15.9419C8.26515 17.2512 8.90802 18.454 9.85203 19.398C10.796 20.342 11.9988 20.9849 13.3081 21.2453C14.6175 21.5058 15.9747 21.3721 17.2081 20.8612C18.4415 20.3503 19.4957 19.4851 20.2374 18.3751C20.9791 17.2651 21.375 15.96 21.375 14.625C21.3731 12.8354 20.6614 11.1196 19.3959 9.85409C18.1304 8.58862 16.4146 7.87686 14.625 7.875ZM14.625 19.125C13.735 19.125 12.865 18.8611 12.1249 18.3666C11.3849 17.8721 10.8081 17.1693 10.4675 16.3471C10.1269 15.5248 10.0378 14.62 10.2115 13.7471C10.3851 12.8742 10.8137 12.0724 11.443 11.443C12.0724 10.8137 12.8742 10.3851 13.7471 10.2115C14.62 10.0378 15.5248 10.1269 16.3471 10.4675C17.1693 10.8081 17.8721 11.3849 18.3666 12.1249C18.8611 12.865 19.125 13.735 19.125 14.625C19.125 15.8185 18.6509 16.9631 17.807 17.807C16.9631 18.6509 15.8185 19.125 14.625 19.125ZM21.375 0H7.875C5.78711 0.00223344 3.78537 0.832636 2.309 2.309C0.832636 3.78537 0.00223344 5.78711 0 7.875V21.375C0.00223344 23.4629 0.832636 25.4646 2.309 26.941C3.78537 28.4174 5.78711 29.2478 7.875 29.25H21.375C23.4629 29.2478 25.4646 28.4174 26.941 26.941C28.4174 25.4646 29.2478 23.4629 29.25 21.375V7.875C29.2478 5.78711 28.4174 3.78537 26.941 2.309C25.4646 0.832636 23.4629 0.00223344 21.375 0ZM27 21.375C27 22.8668 26.4074 24.2976 25.3525 25.3525C24.2976 26.4074 22.8668 27 21.375 27H7.875C6.38316 27 4.95242 26.4074 3.89752 25.3525C2.84263 24.2976 2.25 22.8668 2.25 21.375V7.875C2.25 6.38316 2.84263 4.95242 3.89752 3.89752C4.95242 2.84263 6.38316 2.25 7.875 2.25H21.375C22.8668 2.25 24.2976 2.84263 25.3525 3.89752C26.4074 4.95242 27 6.38316 27 7.875V21.375ZM23.625 7.3125C23.625 7.64626 23.526 7.97252 23.3406 8.25002C23.1552 8.52753 22.8916 8.74382 22.5833 8.87155C22.2749 8.99927 21.9356 9.03269 21.6083 8.96758C21.2809 8.90246 20.9803 8.74174 20.7443 8.50574C20.5083 8.26974 20.3475 7.96906 20.2824 7.64172C20.2173 7.31437 20.2507 6.97507 20.3785 6.66672C20.5062 6.35837 20.7225 6.09482 21 5.90939C21.2775 5.72397 21.6037 5.625 21.9375 5.625C22.3851 5.625 22.8143 5.80279 23.1307 6.11926C23.4472 6.43572 23.625 6.86495 23.625 7.3125Z" fill="var(--fill-0, white)"/>
</svg>
