<svg preserveAspectRatio="none" width="100%" height="100%" overflow="visible" style="display: block;" viewBox="0 0 34 46" fill="none" xmlns="http://www.w3.org/2000/svg">
<path id="Vector" d="M33.7183 21.1184C33.6602 20.8725 33.5423 20.6448 33.3751 20.4554C33.2078 20.2661 32.9964 20.121 32.7595 20.033L21.7123 15.8891L24.5235 1.82745C24.5872 1.50073 24.5428 1.16217 24.3972 0.862865C24.2515 0.563557 24.0125 0.319737 23.7161 0.1682C23.4198 0.0166617 23.0822 -0.034372 22.7543 0.0227995C22.4263 0.0799709 22.1259 0.242245 21.8983 0.485136L0.421334 23.4962C0.2469 23.68 0.120712 23.9041 0.0540451 24.1486C-0.0126221 24.3931 -0.0176931 24.6503 0.0392856 24.8972C0.0962644 25.1441 0.213518 25.373 0.380571 25.5636C0.547624 25.7541 0.759274 25.9003 0.99661 25.9891L12.0477 30.133L9.24416 44.1793C9.1805 44.506 9.22484 44.8446 9.37047 45.1439C9.51611 45.4432 9.75515 45.687 10.0515 45.8385C10.3479 45.9901 10.6855 46.0411 11.0134 45.9839C11.3413 45.9268 11.6417 45.7645 11.8693 45.5216L33.3463 22.5106C33.5176 22.3267 33.6411 22.1036 33.706 21.8609C33.7708 21.6181 33.7751 21.3632 33.7183 21.1184ZM13.3114 39.4946L15.3191 29.4503C15.3909 29.0941 15.334 28.7239 15.1584 28.4057C14.9828 28.0876 14.7 27.8421 14.3603 27.713L4.22775 23.9066L20.4544 6.5217L18.4486 16.566C18.3767 16.9223 18.4337 17.2924 18.6092 17.6106C18.7848 17.9288 19.0677 18.1743 19.4074 18.3034L29.5322 22.1002L13.3114 39.4946Z" fill="var(--fill-0, #A6D74A)"/>
</svg>
