<svg preserveAspectRatio="none" width="100%" height="100%" overflow="visible" style="display: block;" viewBox="0 0 30 30" fill="none" xmlns="http://www.w3.org/2000/svg">
<path id="Vector" d="M27 0H2.25C1.65326 0 1.08097 0.237053 0.65901 0.65901C0.237053 1.08097 0 1.65326 0 2.25V27C0 27.5967 0.237053 28.169 0.65901 28.591C1.08097 29.0129 1.65326 29.25 2.25 29.25H27C27.5967 29.25 28.169 29.0129 28.591 28.591C29.0129 28.169 29.25 27.5967 29.25 27V2.25C29.25 1.65326 29.0129 1.08097 28.591 0.65901C28.169 0.237053 27.5967 0 27 0ZM27 27H2.25V2.25H27V27ZM10.125 12.375V21.375C10.125 21.6734 10.0065 21.9595 9.79549 22.1705C9.58452 22.3815 9.29837 22.5 9 22.5C8.70163 22.5 8.41548 22.3815 8.20451 22.1705C7.99353 21.9595 7.875 21.6734 7.875 21.375V12.375C7.875 12.0766 7.99353 11.7905 8.20451 11.5795C8.41548 11.3685 8.70163 11.25 9 11.25C9.29837 11.25 9.58452 11.3685 9.79549 11.5795C10.0065 11.7905 10.125 12.0766 10.125 12.375ZM22.5 16.3125V21.375C22.5 21.6734 22.3815 21.9595 22.1705 22.1705C21.9595 22.3815 21.6734 22.5 21.375 22.5C21.0766 22.5 20.7905 22.3815 20.5795 22.1705C20.3685 21.9595 20.25 21.6734 20.25 21.375V16.3125C20.25 15.5666 19.9537 14.8512 19.4262 14.3238C18.8988 13.7963 18.1834 13.5 17.4375 13.5C16.6916 13.5 15.9762 13.7963 15.4488 14.3238C14.9213 14.8512 14.625 15.5666 14.625 16.3125V21.375C14.625 21.6734 14.5065 21.9595 14.2955 22.1705C14.0845 22.3815 13.7984 22.5 13.5 22.5C13.2016 22.5 12.9155 22.3815 12.7045 22.1705C12.4935 21.9595 12.375 21.6734 12.375 21.375V12.375C12.3764 12.0994 12.4789 11.834 12.663 11.629C12.8472 11.4239 13.1001 11.2936 13.374 11.2628C13.6478 11.2319 13.9234 11.3026 14.1486 11.4615C14.3737 11.6204 14.5328 11.8564 14.5955 12.1247C15.3565 11.6084 16.2438 11.3092 17.1621 11.2592C18.0804 11.2091 18.9949 11.4102 19.8075 11.8407C20.6202 12.2712 21.3002 12.915 21.7745 13.7028C22.2489 14.4907 22.4997 15.3929 22.5 16.3125ZM10.6875 8.4375C10.6875 8.77126 10.5885 9.09752 10.4031 9.37502C10.2177 9.65253 9.95413 9.86882 9.64578 9.99655C9.33743 10.1243 8.99813 10.1577 8.67078 10.0926C8.34344 10.0275 8.04276 9.86674 7.80676 9.63074C7.57076 9.39474 7.41004 9.09406 7.34492 8.76672C7.27981 8.43937 7.31323 8.10007 7.44095 7.79172C7.56868 7.48337 7.78497 7.21982 8.06248 7.03439C8.33998 6.84897 8.66624 6.75 9 6.75C9.44755 6.75 9.87678 6.92779 10.1932 7.24426C10.5097 7.56072 10.6875 7.98995 10.6875 8.4375Z" fill="var(--fill-0, white)"/>
</svg>
