<svg width="50" height="50" viewBox="0 0 50 50" fill="none" xmlns="http://www.w3.org/2000/svg">
<path opacity="0.2" d="M42.9539 24.5451C42.9539 28.186 41.8743 31.7452 39.8515 34.7725C37.8287 37.7998 34.9536 40.1593 31.5898 41.5526C28.2261 42.9459 24.5247 43.3105 20.9537 42.6002C17.3827 41.8899 14.1026 40.1366 11.5281 37.5621C8.95354 34.9876 7.20027 31.7074 6.48996 28.1365C5.77965 24.5655 6.14421 20.8641 7.53753 17.5003C8.93085 14.1365 11.2904 11.2615 14.3177 9.23868C17.345 7.21589 20.9042 6.13623 24.5451 6.13623C29.4274 6.13623 34.1098 8.07573 37.5621 11.5281C41.0144 14.9804 42.9539 19.6627 42.9539 24.5451Z" fill="#A6D74A"/>
<path d="M24.545 4.60229C20.6006 4.60229 16.7449 5.77193 13.4653 7.96328C10.1857 10.1546 7.62956 13.2693 6.12012 16.9134C4.61069 20.5575 4.21576 24.5673 4.98526 28.4359C5.75476 32.3044 7.65414 35.8579 10.4432 38.647C13.2323 41.4361 16.7858 43.3354 20.6543 44.1049C24.5229 44.8744 28.5327 44.4795 32.1768 42.9701C35.8209 41.4606 38.9356 38.9045 41.1269 35.6249C43.3183 32.3453 44.4879 28.4895 44.4879 24.5452C44.4823 19.2577 42.3794 14.1884 38.6406 10.4496C34.9018 6.71079 29.8325 4.60788 24.545 4.60229ZM24.545 41.42C21.2075 41.42 17.9449 40.4303 15.1699 38.5761C12.3948 36.7219 10.2319 34.0864 8.95472 31.0029C7.6775 27.9194 7.34333 24.5265 7.99444 21.2531C8.64556 17.9797 10.2527 14.9729 12.6127 12.6129C14.9727 10.253 17.9795 8.6458 21.2529 7.99468C24.5263 7.34356 27.9192 7.67774 31.0027 8.95495C34.0861 10.2322 36.7216 12.395 38.5758 15.1701C40.4301 17.9451 41.4198 21.2077 41.4198 24.5452C41.4147 29.0191 39.6352 33.3083 36.4716 36.4719C33.3081 39.6354 29.0189 41.4149 24.545 41.42ZM15.3406 20.71C15.3406 20.2549 15.4755 19.81 15.7284 19.4316C15.9812 19.0532 16.3406 18.7583 16.7611 18.5841C17.1815 18.4099 17.6442 18.3644 18.0906 18.4531C18.537 18.5419 18.947 18.7611 19.2688 19.0829C19.5906 19.4047 19.8098 19.8147 19.8986 20.2611C19.9873 20.7075 19.9418 21.1702 19.7676 21.5906C19.5934 22.0111 19.2985 22.3705 18.9201 22.6233C18.5417 22.8762 18.0968 23.0111 17.6417 23.0111C17.0314 23.0111 16.4461 22.7687 16.0145 22.3372C15.583 21.9056 15.3406 21.3203 15.3406 20.71ZM33.7494 20.71C33.7494 21.1652 33.6144 21.61 33.3616 21.9885C33.1087 22.3669 32.7494 22.6618 32.3289 22.836C31.9084 23.0101 31.4457 23.0557 30.9994 22.9669C30.553 22.8781 30.143 22.659 29.8212 22.3372C29.4994 22.0153 29.2802 21.6053 29.1914 21.159C29.1026 20.7126 29.1482 20.2499 29.3223 19.8294C29.4965 19.409 29.7915 19.0496 30.1699 18.7967C30.5483 18.5439 30.9932 18.4089 31.4483 18.4089C32.0586 18.4089 32.6439 18.6514 33.0754 19.0829C33.507 19.5144 33.7494 20.0997 33.7494 20.71ZM33.5423 29.9145C31.5691 33.3258 28.29 35.2837 24.545 35.2837C20.7999 35.2837 17.5209 33.3278 15.5477 29.9145C15.4367 29.7399 15.3621 29.5446 15.3285 29.3404C15.295 29.1363 15.303 28.9275 15.3523 28.7265C15.4015 28.5255 15.4908 28.3366 15.615 28.1711C15.7391 28.0056 15.8954 27.8669 16.0746 27.7633C16.2537 27.6598 16.4519 27.5935 16.6573 27.5686C16.8627 27.5436 17.071 27.5605 17.2697 27.6181C17.4684 27.6758 17.6534 27.773 17.8135 27.904C17.9737 28.035 18.1057 28.1971 18.2016 28.3804C19.634 30.856 21.8853 32.2156 24.545 32.2156C27.2047 32.2156 29.4559 30.8541 30.8884 28.3804C30.9843 28.1971 31.1163 28.035 31.2764 27.904C31.4366 27.773 31.6215 27.6758 31.8202 27.6181C32.019 27.5605 32.2273 27.5436 32.4327 27.5686C32.638 27.5935 32.8363 27.6598 33.0154 27.7633C33.1945 27.8669 33.3508 28.0056 33.475 28.1711C33.5991 28.3366 33.6885 28.5255 33.7377 28.7265C33.7869 28.9275 33.795 29.1363 33.7614 29.3404C33.7278 29.5446 33.6533 29.7399 33.5423 29.9145Z" fill="#A6D74A"/>
</svg>
