<svg preserveAspectRatio="none" width="100%" height="100%" overflow="visible" style="display: block;" viewBox="0 0 37 37" fill="none" xmlns="http://www.w3.org/2000/svg">
<path id="Vector" opacity="0.2" d="M36.8177 18.4088C36.8177 22.0498 35.738 25.6089 33.7152 28.6363C31.6925 31.6636 28.8174 34.0231 25.4536 35.4164C22.0898 36.8097 18.3884 37.1743 14.8175 36.464C11.2465 35.7537 7.96636 34.0004 5.39183 31.4259C2.81731 28.8513 1.06404 25.5712 0.353729 22.0002C-0.35658 18.4293 0.00797629 14.7279 1.4013 11.3641C2.79462 8.00031 5.15413 5.12524 8.18145 3.10245C11.2088 1.07966 14.7679 0 18.4089 0C23.2912 0 27.9735 1.9395 31.4259 5.39183C34.8782 8.84415 36.8177 13.5265 36.8177 18.4088Z" fill="var(--fill-0, #A6D74A)"/>
</svg>
