<svg preserveAspectRatio="none" width="100%" height="100%" overflow="visible" style="display: block;" viewBox="0 0 40 40" fill="none" xmlns="http://www.w3.org/2000/svg">
<path id="Vector" d="M19.9429 0C15.9986 0 12.1428 1.16963 8.86323 3.36099C5.58364 5.55234 3.0275 8.667 1.51807 12.3111C0.00864095 15.9552 -0.386295 19.965 0.383207 23.8336C1.15271 27.7021 3.05209 31.2556 5.84115 34.0447C8.63022 36.8338 12.1837 38.7331 16.0523 39.5026C19.9208 40.2721 23.9307 39.8772 27.5747 38.3678C31.2188 36.8583 34.3335 34.3022 36.5249 31.0226C38.7162 27.743 39.8858 23.8873 39.8858 19.9429C39.8803 14.6554 37.7773 9.58612 34.0385 5.84731C30.2997 2.1085 25.2304 0.00558367 19.9429 0ZM19.9429 36.8177C16.6054 36.8177 13.3428 35.828 10.5678 33.9738C7.79276 32.1196 5.62988 29.4841 4.35267 26.4006C3.07545 23.3172 2.74128 19.9242 3.39239 16.6508C4.04351 13.3774 5.65068 10.3706 8.01066 8.01065C10.3706 5.65067 13.3774 4.0435 16.6508 3.39238C19.9242 2.74127 23.3172 3.07544 26.4006 4.35266C29.4841 5.62987 32.1196 7.79275 33.9738 10.5678C35.828 13.3428 36.8177 16.6054 36.8177 19.9429C36.8126 24.4168 35.0331 28.706 31.8696 31.8696C28.7061 35.0331 24.4168 36.8126 19.9429 36.8177ZM10.7385 16.1077C10.7385 15.6526 10.8735 15.2077 11.1263 14.8293C11.3792 14.4509 11.7385 14.156 12.159 13.9818C12.5795 13.8076 13.0422 13.7621 13.4885 13.8508C13.9349 13.9396 14.3449 14.1588 14.6667 14.4806C14.9885 14.8024 15.2077 15.2124 15.2965 15.6588C15.3853 16.1052 15.3397 16.5679 15.1656 16.9883C14.9914 17.4088 14.6964 17.7682 14.318 18.021C13.9396 18.2739 13.4947 18.4088 13.0396 18.4088C12.4293 18.4088 11.844 18.1664 11.4125 17.7349C10.9809 17.3033 10.7385 16.718 10.7385 16.1077ZM29.1473 16.1077C29.1473 16.5629 29.0124 17.0077 28.7595 17.3862C28.5067 17.7646 28.1473 18.0595 27.7268 18.2337C27.3064 18.4078 26.8437 18.4534 26.3973 18.3646C25.9509 18.2758 25.5409 18.0567 25.2191 17.7349C24.8973 17.4131 24.6781 17.003 24.5893 16.5567C24.5006 16.1103 24.5461 15.6476 24.7203 15.2271C24.8945 14.8067 25.1894 14.4473 25.5678 14.1944C25.9462 13.9416 26.3911 13.8066 26.8462 13.8066C27.4565 13.8066 28.0418 14.0491 28.4734 14.4806C28.9049 14.9122 29.1473 15.4974 29.1473 16.1077ZM28.9402 25.3122C26.967 28.7236 23.688 30.6814 19.9429 30.6814C16.1979 30.6814 12.9188 28.7255 10.9456 25.3122C10.8346 25.1376 10.7601 24.9423 10.7265 24.7381C10.6929 24.534 10.701 24.3252 10.7502 24.1242C10.7994 23.9232 10.8888 23.7343 11.0129 23.5688C11.1371 23.4033 11.2934 23.2646 11.4725 23.161C11.6516 23.0575 11.8499 22.9912 12.0552 22.9663C12.2606 22.9413 12.4689 22.9582 12.6677 23.0158C12.8664 23.0735 13.0513 23.1707 13.2115 23.3017C13.3716 23.4327 13.5036 23.5948 13.5995 23.7781C15.032 26.2537 17.2832 27.6133 19.9429 27.6133C22.6026 27.6133 24.8539 26.2518 26.2863 23.7781C26.3822 23.5948 26.5142 23.4327 26.6744 23.3017C26.8345 23.1707 27.0195 23.0735 27.2182 23.0158C27.4169 22.9582 27.6252 22.9413 27.8306 22.9663C28.036 22.9912 28.2342 23.0575 28.4133 23.161C28.5925 23.2646 28.7488 23.4033 28.8729 23.5688C28.9971 23.7343 29.0864 23.9232 29.1356 24.1242C29.1849 24.3252 29.1929 24.534 29.1594 24.7381C29.1258 24.9423 29.0512 25.1376 28.9402 25.3122Z" fill="var(--fill-0, #A6D74A)"/>
</svg>
