<svg preserveAspectRatio="none" width="100%" height="100%" overflow="visible" style="display: block;" viewBox="0 0 34 34" fill="none" xmlns="http://www.w3.org/2000/svg">
<path id="Vector" opacity="0.2" d="M32.7404 18.2914L22.8342 21.9348C22.6279 22.0103 22.4406 22.1299 22.2852 22.2852C22.1299 22.4406 22.0103 22.6279 21.9348 22.8342L18.2914 32.7404C18.1839 33.0317 17.9896 33.283 17.7349 33.4605C17.4802 33.6381 17.1771 33.7332 16.8666 33.7332C16.5561 33.7332 16.2531 33.6381 15.9983 33.4605C15.7436 33.283 15.5494 33.0317 15.4418 32.7404L11.7984 22.8342C11.7229 22.6279 11.6033 22.4406 11.448 22.2852C11.2927 22.1299 11.1053 22.0103 10.8991 21.9348L0.992825 18.2914C0.701537 18.1839 0.450203 17.9897 0.272687 17.7349C0.0951699 17.4802 0 17.1771 0 16.8666C0 16.5561 0.0951699 16.2531 0.272687 15.9983C0.450203 15.7436 0.701537 15.5494 0.992825 15.4419L10.8991 11.7984C11.1053 11.7229 11.2927 11.6033 11.448 11.448C11.6033 11.2927 11.7229 11.1053 11.7984 10.8991L15.4418 0.992825C15.5494 0.701537 15.7436 0.450203 15.9983 0.272686C16.2531 0.0951695 16.5561 0 16.8666 0C17.1771 0 17.4802 0.0951695 17.7349 0.272686C17.9896 0.450203 18.1839 0.701537 18.2914 0.992825L21.9348 10.8991C22.0103 11.1053 22.1299 11.2927 22.2852 11.448C22.4406 11.6033 22.6279 11.7229 22.8342 11.7984L32.7404 15.4419C33.0317 15.5494 33.283 15.7436 33.4605 15.9983C33.6381 16.2531 33.7332 16.5561 33.7332 16.8666C33.7332 17.1771 33.6381 17.4802 33.4605 17.7349C33.283 17.9897 33.0317 18.1839 32.7404 18.2914Z" fill="var(--fill-0, #A6D74A)"/>
</svg>
