<svg preserveAspectRatio="none" width="100%" height="100%" overflow="visible" style="display: block;" viewBox="0 0 45 45" fill="none" xmlns="http://www.w3.org/2000/svg">
<path id="Vector" d="M34.8197 23.2143L24.923 19.5709L21.2796 9.66656C21.0638 9.08041 20.6735 8.57454 20.1612 8.21722C19.6489 7.8599 19.0393 7.66831 18.4147 7.66831C17.7901 7.66831 17.1806 7.8599 16.6683 8.21722C16.156 8.57454 15.7656 9.08041 15.5498 9.66656L11.9026 19.5594L1.99825 23.2028C1.4121 23.4186 0.906237 23.8089 0.548912 24.3212C0.191587 24.8335 0 25.4431 0 26.0677C0 26.6923 0.191587 27.3019 0.548912 27.8142C0.906237 28.3264 1.4121 28.7168 1.99825 28.9326L11.8892 32.599L15.5326 42.4976C15.7483 43.0837 16.1387 43.5896 16.651 43.9469C17.1633 44.3043 17.7729 44.4958 18.3975 44.4958C19.0221 44.4958 19.6316 44.3043 20.1439 43.9469C20.6562 43.5896 21.0466 43.0837 21.2623 42.4976L24.9058 32.6009L34.8101 28.9575C35.3963 28.7417 35.9021 28.3514 36.2594 27.8391C36.6168 27.3268 36.8084 26.7172 36.8084 26.0926C36.8084 25.468 36.6168 24.8585 36.2594 24.3462C35.9021 23.8339 35.3963 23.4435 34.8101 23.2277L34.8197 23.2143ZM23.853 29.7226C23.4384 29.8748 23.062 30.1153 22.7497 30.4276C22.4374 30.7399 22.1969 31.1163 22.0447 31.5309L18.4013 41.3988L14.7656 31.5232C14.6133 31.1109 14.3735 30.7364 14.0626 30.4255C13.7518 30.1147 13.3773 29.8749 12.9649 29.7226L3.09703 26.0792L12.9649 22.4358C13.3773 22.2835 13.7518 22.0437 14.0626 21.7329C14.3735 21.422 14.6133 21.0475 14.7656 20.6352L18.409 10.7673L22.0524 20.6352C22.2045 21.0497 22.4451 21.4262 22.7574 21.7385C23.0696 22.0507 23.4461 22.2913 23.8607 22.4434L33.7286 26.0869L23.853 29.7226ZM24.5453 6.13628C24.5453 5.72942 24.7069 5.33922 24.9946 5.05153C25.2823 4.76384 25.6725 4.60221 26.0793 4.60221H29.1475V1.53407C29.1475 1.12721 29.3091 0.737013 29.5968 0.449319C29.8845 0.161625 30.2747 0 30.6815 0C31.0884 0 31.4786 0.161625 31.7663 0.449319C32.054 0.737013 32.2156 1.12721 32.2156 1.53407V4.60221H35.2837C35.6906 4.60221 36.0808 4.76384 36.3685 5.05153C36.6562 5.33922 36.8178 5.72942 36.8178 6.13628C36.8178 6.54314 36.6562 6.93334 36.3685 7.22103C36.0808 7.50873 35.6906 7.67035 35.2837 7.67035H32.2156V10.7385C32.2156 11.1454 32.054 11.5355 31.7663 11.8232C31.4786 12.1109 31.0884 12.2726 30.6815 12.2726C30.2747 12.2726 29.8845 12.1109 29.5968 11.8232C29.3091 11.5355 29.1475 11.1454 29.1475 10.7385V7.67035H26.0793C25.6725 7.67035 25.2823 7.50873 24.9946 7.22103C24.7069 6.93334 24.5453 6.54314 24.5453 6.13628ZM44.4882 15.3407C44.4882 15.7476 44.3265 16.1378 44.0388 16.4255C43.7512 16.7131 43.361 16.8748 42.9541 16.8748H41.42V18.4088C41.42 18.8157 41.2584 19.2059 40.9707 19.4936C40.683 19.7813 40.2928 19.9429 39.886 19.9429C39.4791 19.9429 39.0889 19.7813 38.8012 19.4936C38.5135 19.2059 38.3519 18.8157 38.3519 18.4088V16.8748H36.8178C36.411 16.8748 36.0208 16.7131 35.7331 16.4255C35.4454 16.1378 35.2837 15.7476 35.2837 15.3407C35.2837 14.9338 35.4454 14.5436 35.7331 14.256C36.0208 13.9683 36.411 13.8066 36.8178 13.8066H38.3519V12.2726C38.3519 11.8657 38.5135 11.4755 38.8012 11.1878C39.0889 10.9001 39.4791 10.7385 39.886 10.7385C40.2928 10.7385 40.683 10.9001 40.9707 11.1878C41.2584 11.4755 41.42 11.8657 41.42 12.2726V13.8066H42.9541C43.361 13.8066 43.7512 13.9683 44.0388 14.256C44.3265 14.5436 44.4882 14.9338 44.4882 15.3407Z" fill="var(--fill-0, #A6D74A)"/>
</svg>
