<svg preserveAspectRatio="none" width="100%" height="100%" overflow="visible" style="display: block;" viewBox="0 0 445 213" fill="none" xmlns="http://www.w3.org/2000/svg">
<path id="Vector" d="M46.7363 4.44387C44.3842 2.27668 54.253 4.27049 50.2134 2.27668H43.8728C45.458 0.542929 43.0035 -1.27751 42.6967 1.23643C44.9978 3.57699 36.9186 1.06305 39.2196 3.40362C42.2877 2.1033 45.9693 5.13737 46.7363 4.44387ZM241.301 6.52437C242.732 3.66368 245.084 7.99805 247.641 6.52437C246.158 9.81849 243.653 7.21787 241.301 6.52437ZM348.119 5.48412C347.403 10.1652 342.085 6.43768 339.477 7.56462C341.523 3.83705 344.795 7.47793 348.119 5.48412ZM79.6665 7.6513C80.4846 4.8773 83.1947 7.39124 84.2685 7.6513C83.2459 10.7721 81.2005 7.04449 79.6665 7.6513ZM189.911 8.69155C182.241 10.9454 174.008 10.8587 166.799 8.69155C173.548 6.35099 183.008 7.82468 189.911 8.69155ZM268.453 9.7318C281.85 10.9454 262.726 5.13737 268.453 9.7318ZM128.141 11.899C127.374 15.0197 124.153 13.8061 121.801 14.0662C122.108 12.7659 125.789 10.6854 128.141 11.899ZM129.88 18.2272C129.471 20.6544 126.658 18.6606 125.278 19.2674C126.403 17.0136 128.295 16.9269 129.88 18.2272ZM352.159 19.3541C350.625 23.7752 347.812 19.2674 344.642 20.3944C344.642 18.2272 349.755 18.1405 352.159 19.3541ZM376.959 19.3541C370.516 22.5616 369.34 18.0538 376.959 19.3541ZM75.6269 22.5616C78.2347 26.7226 74.5531 30.3634 78.4904 32.0972C77.3655 34.7845 75.0133 30.7969 73.8884 29.93C65.9626 37.3851 58.5482 28.2829 49.0885 30.9702C55.0711 27.5027 64.7354 26.6359 71.0249 29.93C67.8035 27.3294 71.1271 28.6297 72.7634 26.7226C69.542 23.5151 64.6843 26.1157 61.7697 24.5554C65.2979 21.8681 70.6669 22.4749 75.6269 22.3882V22.5616ZM53.6905 24.6421C55.0711 22.2148 58.855 24.2953 61.2072 23.6018C59.8266 26.0291 56.0427 23.9486 53.6905 24.6421ZM22.4989 29.93C23.4193 30.3634 23.0102 33.3108 24.7999 32.0972C23.9818 34.5244 20.7603 32.5306 19.0218 33.1374C17.4366 31.2303 22.7034 32.9641 22.4989 29.93ZM128.141 34.2644C127.63 36.0848 126.352 36.6049 124.664 36.4316C124.102 32.6173 126.914 34.9579 128.141 34.2644ZM117.199 39.5523C115.511 41.3727 113.057 41.8062 110.296 41.7195C111.012 37.7319 116.074 39.639 117.199 39.5523ZM375.22 54.4626C365.402 54.4626 355.482 53.0756 345.204 52.2954C345.665 46.9207 347.863 50.9951 350.42 50.1282C350.062 44.1467 355.533 49.9548 360.8 51.1684C366.732 52.6421 372.05 46.8341 375.22 54.3759V54.4626ZM342.341 51.2551C340.091 54.0291 329.558 47.4409 338.301 49.0879C340.296 49.4347 341.318 51.4285 342.341 51.2551ZM332.523 55.5028C331.194 50.9084 327.666 54.9827 325.007 54.4626C326.592 51.8619 332.574 48.9146 332.523 55.5028ZM23.1125 53.3356C24.7488 51.4285 33.1859 51.7752 32.9302 53.3356C27.5611 53.509 27.9702 54.1158 23.1125 53.3356ZM7.51667 60.7907C5.72699 63.1313 2.91463 63.6514 0 63.9982C2.09649 62.1777 4.44864 60.8774 7.51667 60.7907ZM26.5385 93.8187C34.8733 92.0849 30.4246 98.5865 26.5385 93.8187ZM32.9302 101.274C27.2543 103.874 22.3455 101.447 18.5104 101.274C22.8568 98.4998 29.4531 100.407 32.9302 101.274ZM40.3957 102.314C39.1685 104.655 37.1232 104.568 35.1801 103.354C35.7425 99.1066 38.6572 102.314 40.3957 102.314ZM44.4353 104.481C46.3272 102.661 48.4237 103.614 50.2134 104.481C49.3953 106.562 45.3046 105.782 44.4353 104.481ZM98.7394 105.521C101.143 103.874 106.052 103.788 107.995 104.481C105.438 107.949 100.887 108.295 98.7394 105.521ZM101.603 109.769C100.018 111.243 96.4895 113.15 94.6998 110.809C97.5633 108.902 99.6087 108.816 101.603 109.769ZM105.642 112.977H108.506C108.506 114.017 107.79 113.843 107.33 114.017C108.455 116.184 108.455 114.97 107.33 117.224C106.87 115.577 105.489 115.664 105.591 112.977H105.642ZM47.9124 119.305C46.0204 118.351 44.333 118.525 40.9582 118.265C39.731 117.224 48.1681 115.144 47.9124 119.305ZM53.128 118.265C48.9862 122.426 48.6283 113.844 53.128 118.265ZM141.436 125.72C132.488 128.407 123.642 126.066 113.159 126.76C121.75 123.899 134.533 124.246 141.436 125.72ZM20.1979 126.76C22.3455 128.32 23.8795 125.373 25.976 127.8C24.084 130.141 20.8626 131.354 20.1979 126.76ZM30.0156 127.887C33.0836 125.026 36.9698 129.534 40.3957 126.847C38.964 129.361 41.265 128.84 40.9582 132.135C35.6403 129.1 33.6972 131.961 30.0156 127.887ZM116.023 128.927C114.847 131.354 111.216 129.274 109.12 129.967C109.12 127.713 114.642 128.58 116.023 128.927ZM26.5385 143.837H29.4019C30.0156 147.392 27.6123 145.484 26.5385 146.005V143.837ZM119.5 158.748C120.011 154.76 124.153 157.361 126.403 156.58C129.215 158.748 120.471 156.58 119.5 158.748ZM35.7937 160.828C32.2143 164.382 27.7657 160.828 21.3739 161.868C23.9818 158.228 29.8622 162.128 35.7937 160.828ZM120.062 160.828C121.238 158.401 124.869 160.481 127.016 159.788C125.84 162.215 122.21 160.135 120.062 160.828ZM155.293 170.45C153.811 173.138 151.152 168.977 148.339 170.45C147.317 168.803 154.373 168.803 155.293 170.45ZM162.196 169.324C161.532 174.005 156.981 170.277 156.418 170.364C157.237 167.936 160.458 169.93 162.196 169.324ZM115.46 171.491C116.636 169.063 120.267 171.144 122.414 170.45C121.801 173.831 116.687 170.884 115.46 171.491ZM64.6332 172.531C66.3206 173.485 66.4228 173.485 68.1103 172.531C68.9284 175.825 63.815 175.825 64.6332 172.531ZM92.9613 173.571C95.2623 175.998 100.529 173.138 102.779 175.738C101.245 182.847 94.751 179.032 90.6603 178.946C90.5069 177.472 93.7794 178.166 92.9613 173.658V173.571ZM121.238 175.738C122.772 173.311 126.812 175.392 129.317 174.698C128.653 178.426 122.823 177.039 121.238 175.738ZM53.6905 177.906C52.5144 180.333 48.8839 178.252 46.7363 178.946C47.1454 175.305 52.361 176.519 53.6905 177.906ZM60.0311 181.026C59.1107 187.875 52.6167 182.24 47.3499 183.193C51.3384 179.032 56.8097 183.887 60.0311 181.026ZM126.403 194.896C129.113 192.469 134.277 194.55 137.959 193.856C135.249 196.37 130.084 194.203 126.403 194.896ZM60.5936 195.937C63.048 193.943 69.1841 194.29 70.4113 198.017C67.1387 198.017 64.8888 197.237 60.5936 195.937ZM66.9853 199.144C69.5931 200.011 72.3032 199.664 76.2405 200.184C74.5531 202.265 68.5705 202.178 66.9853 199.144ZM105.08 200.184C97.3077 201.831 82.6834 202.091 76.803 200.184C85.956 200.358 97.819 199.924 105.08 200.184ZM272.492 199.144C274.64 198.364 274.947 200.964 277.094 200.184C276.839 201.658 271.879 202.785 272.492 199.144ZM278.833 201.311C279.804 198.884 283.23 200.878 285.173 200.271C284.202 202.698 280.776 200.704 278.833 201.311ZM323.268 201.311C318.564 206.773 311.098 200.878 304.809 202.351C310.331 199.491 315.956 201.571 323.268 201.311ZM181.269 205.559H176.054C176.872 204.605 181.116 200.878 181.269 205.559ZM100.427 206.599C101.245 204.172 104.466 206.166 106.205 205.559C105.387 207.986 102.165 205.992 100.427 206.599ZM331.347 6.52437C330.529 7.99805 328.484 8.77824 327.87 7.56462C325.978 7.13118 319.995 8.60487 320.967 6.52437C325.262 6.09093 328.228 7.39124 331.347 6.52437ZM94.0862 32.0972C94.1374 30.1034 96.0293 33.3975 97.5633 32.0972C97.1543 30.1034 95.8248 31.4037 97.0009 28.8897C91.2739 25.0755 85.4446 26.2891 78.5416 23.6018C77.4677 21.5213 83.1947 22.995 84.8821 22.5616C77.7234 21.3479 68.2125 18.834 62.3833 21.5213C62.5367 20.0476 63.815 20.6544 64.6843 20.4811C58.4971 20.221 51.7986 20.0476 44.4864 17.2736C56.2472 15.2798 72.4055 8.51818 84.3197 15.1931C85.0355 14.9331 84.8821 13.1126 84.3197 13.0259C91.3761 8.43149 100.836 12.4191 107.432 15.1931C107.688 17.447 107.023 17.9671 106.87 19.4408H110.347C110.602 21.6947 109.529 21.4346 108.608 21.608C128.806 28.0229 148.799 23.7752 169.815 24.8154C156.418 20.3944 146.038 27.3294 134.584 19.5275H132.846C130.34 19.5275 132.743 17.7071 134.022 18.4872C137.345 18.2272 141.385 19.2674 143.839 17.447C143.737 15.4532 141.896 16.8402 141.538 15.3665C148.493 11.9857 165.316 16.4067 169.815 13.1993C177.946 14.4996 190.064 13.1993 200.393 12.1591C198.041 10.0786 194.718 9.90518 191.138 9.99187C192.723 7.04449 200.496 7.47793 203.819 9.99187C203.922 12.3324 201.774 10.512 200.956 11.0321C212.461 16.6668 227.546 11.3789 243.653 14.2396C239.92 8.25812 252.039 13.8061 254.595 14.2396C262.521 15.6266 271.725 11.9857 275.356 16.4067C290.594 14.9331 308.848 16.7535 322.706 17.447C317.746 21.8681 307.468 17.3603 298.468 17.447C295.707 17.447 292.332 18.1405 289.213 18.4872C290.44 24.9888 296.423 23.0817 300.769 22.7349C299.184 21.0012 296.525 21.3479 294.429 20.5677C302.508 18.6606 312.53 21.6947 323.319 20.5677C328.739 11.2922 337.943 22.9083 345.256 23.7752C346.534 23.9486 345.971 21.7814 346.432 21.608C356.607 18.5739 373.788 27.9362 382.788 20.5677C396.287 19.7009 415.207 20.7411 431.263 16.3201C429.729 19.5275 428.246 16.3201 426.047 18.4872C428.501 21.608 431.774 17.0136 435.302 18.4872C432.694 22.3015 435.916 24.2086 437.041 26.9826C436.069 32.6173 435.66 39.8124 434.74 42.9331C431.109 44.3201 423.951 40.9393 423.746 48.2211C423.593 54.0291 430.342 56.4564 433.564 52.4687C435.865 58.0167 440.416 54.5492 442.205 62.0911C442.359 65.5586 440.416 65.1251 439.904 67.379C441.95 71.3666 444.762 76.1344 444.506 81.249C442.87 85.5834 441.899 84.9766 442.205 91.9116C440.825 91.9116 440.518 93.732 438.728 92.9518C437.961 97.5462 440.364 96.3326 441.029 98.2397C441.131 103.354 438.319 104.048 439.853 108.902C438.575 110.463 436.018 109.596 435.251 112.11C435.66 115.577 437.808 115.924 438.115 119.565C436.529 127.28 433.666 132.655 430.598 137.683C433.103 141.844 433.001 135.429 434.075 135.515C436.478 135.689 434.177 136.209 434.075 137.683C434.944 143.404 439.802 135.082 439.853 141.93C442.359 138.723 440.569 133.522 441.029 125.98C444.097 131.008 442.205 141.15 439.853 145.138C438.473 144.791 437.706 143.491 435.814 144.097C437.706 148.692 438.063 157.187 439.291 162.215C438.779 163.775 437.45 163.775 436.376 164.382C438.984 168.717 435.251 178.339 438.677 181.373C434.535 186.314 433.564 191.169 429.422 195.156C429.626 197.93 432.388 196.11 432.899 198.364C432.234 204.605 429.729 207.379 428.297 212.234H423.695C423.797 211.02 424.769 211.367 425.433 211.194C421.087 206.339 410.809 213.708 407.537 204.779C410.4 206.426 414.593 203.652 416.792 204.779C404.264 195.243 383.81 197.844 367.141 197.324C369.953 194.376 365.658 195.33 363.664 195.156C365.147 200.964 356.454 194.376 353.284 195.156C353.181 197.497 355.329 195.676 356.198 196.197C353.386 199.751 345.256 195.156 340.602 195.156C340.705 196.37 341.676 196.023 342.341 196.197C342.29 198.537 339.887 196.63 338.864 197.237C338.864 196.197 339.58 196.457 340.04 196.197C339.887 194.636 338.301 195.85 338.301 194.029C328.791 194.029 337.534 192.209 342.341 192.989C336.972 184.407 323.626 190.649 314.626 188.742C320.967 192.903 327.666 189.348 331.961 195.156C317.848 194.463 305.525 194.55 295.605 194.116C295.144 194.116 293.099 191.862 292.128 191.949C289.622 192.382 285.02 196.89 282.31 194.116C281.492 194.376 282.105 197.324 281.134 197.324C276.276 192.989 272.032 197.93 264.975 197.324C265.947 200.878 270.907 197.064 271.316 201.571C266.509 197.93 260.322 203.392 257.459 196.283C255.413 202.958 250.147 197.757 245.34 199.491C242.579 200.444 233.119 198.277 225.705 198.451C201.416 199.057 170.736 202.958 140.823 201.658H137.345C139.289 199.231 143.686 201.311 146.601 200.618C149.106 199.144 154.987 199.577 159.895 199.577C159.128 194.55 153.811 198.017 151.816 195.33C154.066 191.255 160.305 193.509 165.674 193.249C160.714 189.608 154.935 193.249 147.214 192.209C147.623 193.163 148.237 193.856 148.953 194.376C148.237 197.584 146.652 193.769 146.652 192.209C113.108 190.389 86.2628 194.376 54.3041 189.002H49.7021C48.4237 189.782 46.0204 187.875 48.526 187.961C51.0316 187.268 55.0711 189.348 56.6051 186.921C57.0142 189.002 59.8266 186.661 60.0822 189.002C62.7923 185.621 66.8319 190.649 69.3375 187.961C67.1387 183.28 64.9911 184.841 61.2583 183.714C64.1729 180.159 69.3375 181.546 72.8146 181.546C70.3601 179.813 67.8035 178.252 65.2979 179.379C66.5762 175.998 69.6443 176.085 71.076 172.964C68.6216 168.977 63.0991 170.624 59.5198 168.717C59.3152 169.323 60.4913 170.104 60.6958 169.757C56.1449 178.079 41.265 164.989 35.2823 168.717C35.4357 167.243 36.7141 167.85 37.5834 167.676C35.7937 165.509 34.3619 168.197 31.8052 166.636C33.4927 162.995 39.1685 166.636 39.8844 161.348C45.1 160.915 47.5033 161.348 53.1792 161.348C54.0996 163.515 48.1681 161.955 46.225 162.388C47.8613 165.249 52.0542 163.602 56.0427 164.556C56.2472 162.042 53.4348 165.163 54.3041 161.348C64.7866 162.909 72.1498 158.748 82.0187 159.181C75.8826 156.667 67.1898 158.834 60.0822 158.141C61.7697 156.32 64.2241 155.887 66.9853 156.06C64.2752 151.032 57.8835 156.32 54.8666 153.893C49.293 152.853 56.0938 152.94 59.4686 152.853C63.4571 152.679 68.3148 153.113 69.8488 151.813C69.4909 154.153 67.1898 146.438 68.6727 148.605C65.0422 143.317 59.0596 146.785 51.952 145.398C55.8381 139.85 68.0591 141.237 73.3259 140.11C71.5874 137.683 67.3944 139.763 64.6843 139.07C63.2014 139.07 63.9684 138.289 64.1218 136.902H57.7812C56.0427 137.596 52.4122 135.862 56.0427 135.862C60.1334 134.475 66.2694 134.388 70.4624 138.029C71.843 138.029 72.1498 136.209 73.9395 136.989C68.7239 133.782 58.1903 132.828 50.2645 134.822C50.4691 133.001 49.8043 132.828 49.0885 132.655C49.7532 126.24 53.0769 130.141 55.4291 129.447C64.3264 126.847 72.0987 122.426 84.3197 125.2C84.9333 126.673 75.5758 126.847 83.1436 127.367C83.7061 130.574 81.8653 129.274 80.8426 129.534C83.7572 134.128 89.1263 130.748 91.7852 133.782C92.3477 137.596 89.4842 135.255 88.3081 135.949C88.8706 137.423 90.2512 137.336 90.6091 139.156C88.9728 140.11 83.1436 140.457 79.0529 140.197C100.785 145.484 116.074 143.751 137.959 142.364C134.124 140.543 129.062 141.063 124.664 140.197C127.068 137.596 128.602 139.156 131.567 136.989C125.687 134.909 121.647 134.822 114.847 135.949C114.744 140.023 118.477 137.076 119.449 139.156C111.83 141.497 98.9951 141.67 91.1716 138.116C96.3873 138.896 100.631 138.116 107.33 138.116C103.393 135.949 100.785 137.162 96.9497 135.949C95.8248 135.775 102.984 132.221 101.552 134.909C107.586 133.001 117.199 129.1 122.312 131.701C122.21 131.701 121.75 133.782 121.75 133.868C124.357 133.348 127.17 130.227 129.829 129.621C137.448 127.974 145.169 127.8 153.504 128.58C152.737 122.512 144.453 130.401 143.686 124.333C145.118 125.546 150.027 124.159 153.504 123.292C146.14 120.172 141.692 122.772 134.431 120.085C134.329 120.085 135.658 118.178 136.169 119.045C132.488 112.977 120.829 120.085 113.057 116.878C114.489 114.884 113.108 112.977 116.534 113.67C110.602 110.463 109.426 113.237 102.114 111.503C107.995 106.302 115.46 110.896 122.312 106.215C122.056 107.169 121.801 108.122 121.136 108.382C127.63 108.642 131.567 104.828 137.857 107.342C137.755 106.128 136.834 106.475 136.118 106.302C139.033 103.528 145.425 107.169 147.674 103.094C142.459 103.094 135.811 102.401 130.34 104.134C130.084 101.881 131.158 102.141 132.079 101.967C123.795 100.84 110.654 99.1066 100.325 100.927C100.529 102.401 101.756 101.794 102.626 101.967C96.285 104.481 86.1605 101.967 81.2516 104.134C80.8426 106.995 82.4277 106.215 82.9902 107.342C81.5584 109.162 77.8768 106.215 74.911 107.342C77.57 111.33 85.0867 106.388 85.2912 114.797C86.0582 113.323 87.7968 113.757 89.3308 113.757C88.5638 110.896 84.7287 113.757 84.7287 109.509C87.4388 109.422 91.1716 110.289 93.3704 115.924C96.285 111.85 101.194 115.23 103.751 116.964C100.734 121.125 94.8532 113.583 92.8079 119.131C93.8817 121.212 94.8532 120.952 96.285 120.172C89.3308 126.933 71.7408 123.292 63.4059 122.339C61.6163 119.045 65.349 120.518 66.883 120.172C64.582 117.744 67.0876 118.004 69.1841 118.004C59.5709 116.357 52.4633 116.964 39.731 116.964C37.6345 117.398 38.9128 115.057 40.2935 115.924H43.1569C44.7932 116.097 44.2819 112.283 46.634 113.757C48.1169 113.757 47.3499 114.537 47.1965 115.924C49.0885 114.71 47.1965 113.15 48.9351 111.676C55.0711 111.416 59.8266 113.583 66.2694 112.717C54.4064 110.116 44.8955 109.943 33.9529 108.469C40.6003 107.342 53.895 104.741 61.1049 105.261C62.8435 106.909 58.5994 106.215 57.6278 106.302C58.4971 109.682 62.0765 108.035 64.582 108.469C63.6105 102.314 70.1045 108.642 73.8372 108.469C73.9395 106.128 71.7919 107.949 70.9737 107.429C69.1841 105.782 73.4793 106.475 74.4508 106.388C70.8715 102.574 66.7808 105.175 61.1561 104.221C63.2014 103.181 65.8604 100.147 69.7977 99.9735C60.7981 96.6794 46.2761 102.747 36.305 98.9332C37.4811 92.8651 41.7252 97.0261 45.5602 94.6856C41.8275 90.4379 34.6176 93.1252 32.2654 91.4781C42.6456 87.8372 55.6336 90.2645 69.2352 87.2304C67.1898 83.1561 65.4513 86.5369 63.4571 84.023C63.2014 86.2769 64.2752 86.0168 65.1956 86.1035C63.9684 89.6577 62.2299 83.3295 59.98 84.023C59.7754 84.023 58.3948 87.2304 58.2414 87.2304C55.5825 87.4905 46.0204 83.6762 52.4633 84.023C46.5318 82.8094 43.0547 84.1964 37.43 82.9827C36.5607 82.5493 37.6345 81.5957 37.43 79.7753C35.1289 80.7289 31.1405 78.8217 29.3508 81.9425C31.1405 74.0539 38.4015 82.0292 40.9071 76.6546C40.8559 72.1468 36.4584 75.6143 34.5665 74.5741C36.2539 80.8156 30.9871 71.2799 27.6634 73.5338C29.1974 71.54 33.6972 71.54 35.7425 72.4936C33.3393 66.2521 23.1636 74.4874 20.7092 68.2459C32.47 66.9456 41.1627 63.9982 58.8039 62.9579C58.8039 58.4502 57.1165 56.8031 54.2019 57.67C54.4575 59.7505 56.4517 58.5369 55.9404 61.9177C55.1223 59.8372 53.128 60.0106 51.9008 58.7102C54.7132 58.7102 50.827 54.6359 55.3779 55.5028C52.0542 52.3821 46.7874 55.0694 42.0831 54.4626C44.8955 51.0817 48.9351 52.8155 50.1623 52.3821C50.8782 52.122 50.7248 50.0415 50.1623 50.2149C53.486 48.8279 51.7986 50.9951 58.2414 51.2551C59.5709 50.6483 57.5256 49.6081 58.8039 48.0477C64.2241 48.8279 67.4966 45.6204 72.6612 45.8805C72.5589 44.6669 71.5874 45.0136 70.9226 44.8402C73.377 44.0601 75.1667 43.0198 78.4393 43.8C78.4393 40.2458 75.1667 42.7597 74.3997 40.5926C81.2516 37.8186 88.6149 39.9857 96.3361 39.5523C96.4895 41.2861 95.7736 41.3727 95.7736 42.7597C101.859 42.7597 99.353 44.9269 94.5976 43.8C94.2396 52.8155 102.523 48.4811 104.978 49.0879C103.597 46.6607 99.8132 48.7412 97.4611 48.0477C96.7452 46.8341 97.2565 45.3604 97.4611 47.0074C106.103 46.2272 113.313 45.5337 122.875 47.0074C124.306 46.8341 124.255 49.348 125.176 50.2149C129.624 49.5214 130.442 48.5678 133.817 50.2149C138.828 52.6421 130.954 50.6483 130.954 51.2551C130.851 53.7691 138.061 51.7752 140.771 51.2551C139.34 49.4347 139.595 48.9146 141.947 49.0879C141.334 46.6607 138.317 48.6545 136.732 48.0477C140.004 42.413 132.283 46.3139 130.954 48.0477C129.829 44.8402 126.505 45.6204 124.613 43.8C117.148 42.5864 128.704 42.7597 132.692 42.7597C140.874 42.7597 148.186 43.8 153.453 40.5926C153.248 44.9269 170.531 41.026 165.571 43.8H160.969C158.055 45.187 154.322 45.1003 151.152 45.9672C159.435 53.4223 172.065 45.1003 181.73 44.9269C177.076 42.4997 169.611 45.2737 165.571 41.7195C167.668 37.4718 171.963 41.8929 174.213 39.5523C170.787 37.7319 165.98 38.3387 162.094 37.4718C166.083 30.1901 170.889 37.2984 175.389 34.2644C169.969 27.156 156.93 33.6576 151.152 30.0167C151.152 28.9764 151.867 29.2365 152.328 28.9764C152.072 26.6359 149.464 28.543 148.288 27.9362C148.084 29.7566 148.748 29.93 149.464 30.0167C146.14 31.5771 142.152 28.8897 139.646 30.0167C139.749 28.8031 140.72 29.1498 141.385 28.9764C134.38 23.9486 121.647 30.9702 111.932 26.8092C111.676 29.0631 112.75 28.8031 113.67 28.9764C111.779 30.9702 110.347 31.0569 109.068 30.0167C111.881 35.0446 121.289 28.8897 123.488 37.4718C112.494 33.0507 103.444 40.5926 94.0351 33.2241L94.0862 32.0972ZM432.388 190.649C432.336 189.348 432.234 188.135 431.212 188.481C412.599 187.355 389.537 189.435 371.18 188.481C370.311 192.296 373.124 189.088 372.919 191.689C368.521 192.989 369.237 190.129 367.141 188.481C360.903 190.562 349.96 186.314 340.602 189.522C343.057 188.742 345.307 190.389 342.903 192.729C349.039 191.169 358.09 195.59 361.363 190.562C368.061 195.937 376.14 192.642 382.123 192.729C382.021 193.943 381.1 195.156 382.123 195.937C397.463 186.228 417.814 204.259 432.336 190.649H432.388ZM239.562 17.1869C242.323 16.06 245.033 20.4811 247.079 17.1869C245.545 16.4067 239.051 14.8464 239.562 17.1869ZM313.45 21.4346C305.167 20.3944 313.706 26.1157 317.49 22.4749C316.365 23.3417 314.933 21.608 313.45 21.4346ZM165.111 26.8092C170.02 27.156 171.605 30.3634 176.105 26.8092C173.906 26.9826 167.003 24.2086 165.111 26.8092ZM184.747 27.8495C189.706 28.1096 192.212 27.156 196.303 27.8495C194.564 23.5151 186.741 25.5956 184.747 27.8495ZM205.507 26.8092C211.285 26.2024 213.484 29.93 217.626 25.769C214.097 26.3758 206.172 24.4687 205.507 26.8092ZM217.063 33.1374C218.137 32.8774 216.756 31.4037 217.626 30.9702C218.955 30.9702 225.347 31.317 222.228 29.93C217.677 30.9702 213.279 28.1096 210.109 29.93C209.137 26.9826 203.768 27.5027 203.768 28.8897C208.166 30.3634 212.41 32.0972 217.063 33.1374ZM272.492 36.3449C272.492 34.6111 274.077 35.7381 274.231 34.1777C273.208 33.6576 274.486 33.0507 274.793 32.0105C269.373 32.4439 263.493 28.1096 259.197 29.8433C261.243 28.9764 262.061 32.0972 260.936 34.091C264.413 35.5647 264.618 30.8836 267.839 31.9238C268.044 33.4842 268.555 33.7442 267.839 35.1312C271.06 37.2984 272.339 32.7907 272.441 36.1715L272.492 36.3449ZM195.689 29.93C192.008 30.6235 186.843 28.543 184.133 30.9702C187.815 30.2767 192.979 32.3572 195.689 29.93ZM295.553 33.1374C293.252 33.8309 292.281 32.0972 290.338 32.0972C290.031 33.3975 289.724 34.5244 289.162 35.3046C289.673 31.5771 287.27 33.4842 286.861 34.2644C287.628 30.9702 285.224 28.1962 284.56 31.0569C285.531 31.4904 284.457 32.4439 284.56 34.2644C286.503 33.5709 285.48 36.4316 285.122 37.4718C287.781 43.1932 299.695 34.6111 297.803 40.6792C299.286 40.2458 303.377 43.4532 302.405 40.6792C301.536 40.5059 300.258 41.026 300.104 39.639C306.496 39.0322 312.172 40.6792 315.7 33.2241H312.223C312.223 39.5523 307.417 36.7783 306.445 36.4316C306.445 35.0446 307.468 35.478 307.621 34.2644C304.911 31.9238 295.656 43.1065 297.241 33.2241C295.554 32.0105 295.093 38.3387 294.377 35.3046C295.042 35.0446 295.298 34.091 295.553 33.2241V33.1374ZM312.888 38.5121H314.064C314.473 41.3727 311.354 37.7319 311.763 40.6792C317.183 42.0662 324.137 40.5926 327.359 45.9672C328.535 44.0601 327.87 42.6731 328.535 41.7195C335.796 42.9331 345.92 38.8588 353.948 40.6792C356.863 41.3727 358.346 45.1003 362.027 44.9269C365.402 44.7536 368.01 40.8526 371.845 42.7597C372.254 40.5926 375.118 37.5585 376.447 40.5926C375.578 40.7659 374.3 40.2458 374.146 41.6328C375.322 41.026 377.93 42.9331 378.186 40.5926C375.782 40.4192 378.083 39.8991 378.186 38.4254C370.311 35.9981 364.226 43.6266 353.948 38.4254C359.215 38.252 351.647 36.4316 350.471 35.2179C349.346 37.0384 348.733 39.8124 346.994 40.5059C340.602 38.5121 337.534 34.7845 332.574 32.0105C331.194 33.6576 329.762 32.3572 330.836 36.2582C330.069 35.1312 328.688 35.2179 327.972 34.091C329.097 39.3789 324.342 39.3789 323.37 37.2984C323.626 35.6514 325.211 36.3449 324.546 33.0507C323.115 35.1312 322.194 31.4037 321.069 34.091C321.785 34.5244 322.245 35.478 322.245 37.2984C320.047 39.8124 315.547 34.8712 312.99 38.3387L312.888 38.5121ZM303.07 29.93C300.156 30.6235 295.758 28.543 293.815 30.9702C296.73 30.2767 301.127 32.3572 303.07 29.93ZM251.681 36.3449C253.215 35.9114 254.851 35.8247 255.72 34.1777C254.186 34.6111 250.044 30.7102 251.118 33.1374C251.783 33.3108 251.732 34.7845 251.681 36.3449ZM355.585 33.1374C351.136 33.8309 345.204 31.7504 341.727 34.1777C346.176 33.4842 352.108 35.5647 355.585 33.1374ZM375.22 33.1374C372.305 33.8309 367.908 31.7504 365.965 34.1777C368.879 33.4842 373.277 35.5647 375.22 33.1374ZM382.737 34.2644C381.714 34.2644 379.515 32.0972 378.135 34.2644C379.924 34.1777 380.947 36.6049 382.737 34.2644ZM383.299 40.5926C386.521 39.5523 394.344 38.7721 398.895 39.5523C397.412 35.8247 383.248 34.6111 383.299 40.5926ZM189.349 38.5121C197.53 38.3387 202.132 41.7195 210.109 38.5121C202.643 37.1251 194.922 37.0384 189.349 38.5121ZM405.236 40.5926C405.031 37.8186 408.457 41.5461 407.537 37.3851C405.9 36.2582 403.548 39.0322 405.236 40.5926ZM326.745 48.0477C328.177 47.8743 329.148 48.5678 329.609 50.2149C323.677 50.0415 318.513 53.0756 312.274 50.2149C317.643 47.4409 320.762 51.5152 326.132 48.0477C324.546 43.8867 317.95 43.6266 312.274 43.8C311.712 48.7412 316.621 43.6266 316.876 47.0074C310.894 48.5678 305.422 45.9672 300.718 47.0074C303.019 47.7009 304.86 49.348 307.621 49.1746C307.621 50.6483 307.365 51.5152 307.059 52.3821H323.779C322.654 58.7102 327.921 53.2489 328.381 56.6297C327.001 57.2366 324.188 55.3294 323.779 57.67C324.802 59.3171 326.029 60.6174 327.256 61.9177C324.955 63.6514 322.296 65.5586 318.001 66.1654C317.03 66.2521 312.786 65.5586 314.524 67.2056C322.399 66.5121 327.461 66.0787 335.898 66.1654C336.154 59.6638 330.734 63.6514 328.995 60.8774C334.927 59.8372 339.324 62.3511 343.415 57.67C342.699 57.4099 343.057 56.4564 343.415 55.5028C339.171 54.4626 336.665 56.3697 333.597 54.4626C357.528 52.9889 386.214 61.5709 405.184 54.4626C403.446 54.4626 401.401 55.0694 401.707 51.2551C405.9 51.6019 408.252 52.5554 412.65 50.2149C405.287 51.0817 401.758 47.8743 395.316 49.1746C395.418 47.7876 396.236 47.0074 394.753 47.0074C376.038 47.8743 359.062 45.6204 341.063 48.0477C342.545 48.4811 343.722 49.5214 344.54 51.2551C340.04 48.2211 332.574 44.9269 326.643 48.0477H326.745ZM264.413 48.0477C265.078 48.2211 266.049 47.8743 266.152 49.0879C271.163 49.0879 274.537 48.6545 269.629 48.0477C268.811 47.961 267.072 49.0012 266.765 47.0074C268.095 47.2675 268.913 46.7474 269.066 44.8402C266.663 44.3201 265.896 46.8341 264.464 48.0477H264.413ZM288.088 51.2551C291.974 49.5214 300.411 53.6824 303.121 50.2149C301.178 49.5214 297.752 51.6019 296.781 49.1746C305.371 50.3882 285.787 41.026 288.139 51.3418L288.088 51.2551ZM103.904 50.2149C100.631 51.6886 97.5633 47.0074 95.2623 50.2149C96.6429 51.8619 106.358 51.8619 103.904 50.2149ZM140.874 55.5028C141.641 55.6762 145.067 55.6762 143.175 54.4626H130.494C130.442 52.8155 130.596 50.735 129.317 51.2551C127.477 51.7752 124.869 52.2087 121.801 52.2954C119.909 52.2954 109.478 51.4285 113.722 53.3356C115.562 55.3294 120.113 52.2087 120.062 57.5833C118.477 57.8434 111.216 55.9362 109.682 59.7505C110.602 60.0106 110.091 62.0911 109.682 62.9579C127.221 67.8124 138.112 63.5648 153.555 62.9579C153.759 60.444 156.316 62.3511 155.856 58.7102C154.117 57.3232 150.896 58.6236 149.515 56.5431C150.129 54.1158 153.657 57.0632 154.117 54.4626C151.1 53.2489 144.76 52.6421 148.339 57.67C143.124 57.9301 137.397 60.6174 134.482 56.6297C136.834 56.7164 139.237 56.8031 140.823 55.5895L140.874 55.5028ZM70.4113 62.9579C71.843 61.7443 74.3486 62.4378 74.4508 58.7102C72.0476 59.5771 71.7408 56.6297 69.8488 56.5431C69.5931 61.5709 72.8146 58.9703 70.4113 62.9579ZM364.84 59.7505C368.931 58.2768 370.516 66.9456 373.481 63.9982C371.743 61.5709 366.067 56.0229 364.84 59.7505ZM90.0467 61.9177C92.5011 63.3047 97.4099 63.8248 97.5633 61.9177C95.9782 61.1375 90.8648 57.0632 90.0467 61.9177ZM361.976 59.7505C361.005 59.7505 360.493 60.6174 360.238 61.9177C368.368 62.4378 367.345 60.8774 361.976 59.7505ZM347.505 65.1251C349.704 67.5524 353.488 69.1994 355.022 67.2923C353.13 63.0446 350.164 67.379 347.505 65.1251ZM376.959 70.4131C377.316 70.4131 377.623 70.2397 377.521 69.3728C376.805 69.1127 377.163 68.1592 377.521 67.2056C371.538 65.992 367.448 65.2118 359.624 66.1654C362.13 72.4936 374.658 68.3326 376.345 69.3728C375.731 69.3728 375.885 70.7598 376.907 70.4131H376.959ZM120.062 82.1159C117.096 82.9827 115.869 80.6422 113.159 81.0756C114.591 83.1561 119.807 87.4038 120.062 82.1159ZM107.381 88.5307C118.375 91.7382 136.476 88.7908 147.214 88.5307C135.709 85.6701 122.261 88.7041 113.159 86.3636C113.159 84.6298 114.744 85.7567 114.898 84.1964C113.722 84.8032 111.114 82.8961 110.858 85.2366C114.744 88.0973 107.637 86.4502 107.381 88.4441V88.5307ZM125.84 97.0261C120.369 96.1592 108.915 91.4781 103.904 97.0261C112.085 97.9797 119.295 98.8466 125.84 97.0261ZM91.7852 100.234C89.4331 97.893 86.3139 99.8001 84.831 98.0664C85.9048 102.921 89.1774 100.667 91.7852 100.234ZM69.2863 111.85C71.6385 110.723 74.1952 115.491 75.0645 110.809C73.8884 109.856 69.7977 109.596 69.2863 111.85ZM117.199 110.809C117.148 113.757 118.17 112.977 117.199 115.057C121.289 113.063 121.289 114.97 124.102 112.89C125.022 118.958 132.385 113.063 136.783 115.057C134.993 108.382 131.107 115.057 128.704 112.89C129.164 112.63 129.829 112.89 129.88 111.85C125.022 110.289 120.983 109.943 117.199 110.809ZM319.791 127.887C311.098 127.8 314.626 128.32 318.615 130.054C312.888 133.088 306.803 124.94 303.019 129.014C306.036 128.927 304.962 129.534 303.582 131.181C310.024 130.921 320.2 135.082 326.694 130.141C324.342 129.881 320.456 127.8 323.779 131.181C321.836 131.181 320.711 129.707 319.74 127.974L319.791 127.887ZM285.173 132.135C292.076 130.314 290.798 130.401 285.173 128.927C284.202 128.927 283.69 129.707 283.435 131.094C284.1 131.268 285.071 130.921 285.173 132.135ZM281.696 138.463C284.1 135.515 288.804 136.556 293.252 138.463V135.255C290.287 134.302 283.895 131.441 281.696 138.463ZM314.064 135.342C312.888 132.915 309.257 134.995 307.161 134.302C306.854 134.128 301.332 133.435 300.207 135.342C305.013 136.989 308.899 137.683 312.888 138.549C313.041 133.348 307.314 138.896 306.547 135.342H314.064ZM367.754 140.63C366.323 143.231 357.988 135.689 357.374 139.59C357.374 138.983 357.272 138.376 356.812 138.549C358.857 140.803 366.425 143.231 367.754 140.717V140.63ZM383.299 142.71C384.168 142.71 388.003 143.144 386.163 141.67H380.947C379.873 139.763 377.112 140.89 375.169 140.63C373.686 141.844 371.487 144.097 370.567 140.63C371.232 140.457 372.203 140.803 372.305 139.59C368.01 140.543 363.868 141.844 360.187 143.837C369.493 144.271 373.891 142.19 383.299 142.797V142.71ZM129.88 147.045C130.596 144.618 123.642 147.218 122.363 144.878C122.363 146.611 120.778 145.484 120.625 147.045H129.88ZM89.4842 148.085C86.5696 150.426 85.8537 144.618 83.1436 148.085C84.8821 152.94 91.2739 150.512 94.0862 149.125C91.0182 151.466 87.2854 142.624 89.4842 148.085ZM97.5633 151.293C97.7167 147.652 101.398 150.599 102.165 148.085C100.273 146.611 95.7737 144.357 93.5238 147.045C96.285 147.392 93.7283 152.073 97.5633 151.293ZM117.761 152.333C113.619 153.546 108.864 150.339 106.205 152.333C106.87 152.506 107.841 152.159 107.944 153.373C104.978 152.853 103.955 155.887 102.165 157.621C104.518 158.228 107.279 158.141 108.506 160.828C103.904 160.135 97.7167 162.215 94.0862 159.788C96.5918 159.788 102.165 159.788 100.989 156.58C97.5122 157.967 93.2681 157.881 91.1716 161.868C116.892 163.169 133.715 161.348 159.282 157.621C151.919 154.067 141.794 159.094 135.044 156.58C137.397 156.667 139.749 156.754 140.823 154.413C136.221 153.72 130.033 155.8 126.403 153.373C130.494 154.153 132.846 151.726 136.783 152.333C134.175 148.172 132.028 150.946 131.567 145.918C125.329 151.986 115.869 144.618 110.193 147.998C110.909 148.085 111.574 148.345 111.369 150.166C109.938 148.518 105.745 146.351 103.853 149.125C107.483 150.426 112.903 150.512 117.71 152.333H117.761ZM263.799 155.54C258.788 152.159 256.283 157.534 252.243 154.5C255.516 159.701 263.237 155.193 263.799 155.54ZM295.553 155.54C292.332 155.54 288.395 159.268 285.736 157.621C288.446 159.268 294.94 158.401 298.417 158.661C316.263 160.135 340.602 157.881 355.585 158.661C338.966 154.066 312.683 155.714 295.553 155.454V155.54ZM356.761 158.748C360.903 157.881 363.306 161.435 367.141 158.748C365.863 155.453 357.988 155.193 356.761 158.748ZM162.81 170.45C162.963 168.023 161.123 169.237 161.072 167.243C140.925 170.277 114.335 163.429 96.3873 168.283C99.8132 170.104 105.489 167.85 106.767 173.571C96.7452 174.351 89.9444 168.63 81.3539 169.324C82.2232 169.497 83.5015 168.977 83.6549 170.364C83.5527 174.091 80.1267 171.664 80.1778 175.652C81.6096 176.519 85.1378 173.571 84.7799 177.819C83.2459 180.246 79.2063 178.166 76.7007 178.859C97.4099 184.407 121.545 180.42 140.209 183.107C145.067 177.819 160.407 183.714 165.622 178.859C160.509 177.992 153.35 180.94 150.027 176.692C158.106 171.491 163.628 178.339 169.662 172.444C167.003 172.444 164.549 171.924 162.759 170.277L162.81 170.45ZM290.389 171.491C293.252 173.311 297.394 174.785 301.383 172.531C298.979 172.791 299.133 171.144 297.343 172.531C297.343 171.144 298.059 171.057 297.906 169.324C294.786 169.93 292.588 167.763 290.389 171.491ZM302.508 170.45C305.678 171.404 312.581 176.259 311.149 170.45C315.751 169.324 319.74 173.571 322.706 169.41C315.802 167.156 307.928 168.63 302.508 170.45ZM348.682 173.571C345.614 168.023 332.677 169.237 326.745 169.324C335.336 173.485 340.193 171.404 348.682 173.571ZM288.65 172.531C288.804 169.757 287.832 169.063 286.349 169.324C286.196 172.098 287.168 172.791 288.65 172.531ZM378.135 172.531C385.191 172.271 392.963 176.085 399.509 172.531C388.157 171.491 377.828 168.457 365.453 169.324C368.624 178.079 373.891 172.618 378.135 172.531ZM206.069 172.531C207.654 172.184 213.279 173.831 211.285 170.364C210.876 172.791 206.376 167.503 206.069 172.531ZM126.403 184.234C129.42 183.194 127.681 188.395 126.965 189.522C132.437 188.135 136.016 189.782 140.823 187.441C137.857 185.968 132.641 189.262 129.266 186.401C129.778 184.147 132.232 185.534 132.743 183.193C131.005 183.627 125.278 182.153 126.403 184.234ZM101.04 187.441C102.063 190.909 108.404 190.129 110.296 188.481C106.103 188.655 103.239 184.667 101.04 187.441ZM89.4842 187.441C88.4615 186.401 81.3539 184.754 83.1436 188.481C83.3993 188.048 97.0009 189.002 89.4842 187.441ZM151.816 186.401C150.64 187.008 148.032 185.101 147.777 187.441C148.748 189.262 151.356 188.655 151.816 186.401ZM123.539 187.441C123.028 190.129 114.028 187.094 117.199 189.522C120.113 188.828 124.511 190.909 126.454 188.481C125.073 188.915 125.176 186.574 123.59 187.441H123.539ZM302.508 187.441C300.769 188.135 297.548 186.054 296.73 188.481C298.468 187.788 301.69 189.868 302.508 187.441ZM289.213 191.689C287.474 192.382 284.253 190.302 283.435 192.729C285.173 192.036 288.395 194.116 289.213 191.689ZM206.683 193.856V197.064C209.546 195.243 214.455 197.237 217.063 194.896C213.279 193.596 209.035 192.469 206.683 193.856ZM242.477 192.729C238.59 193.943 235.471 192.382 232.659 193.769C234.449 197.324 240.891 196.11 242.477 192.729ZM420.831 201.311C424.462 201.311 428.348 201.745 431.212 200.271C429.575 193.423 422.877 198.971 420.831 201.311ZM397.156 52.2954C397.821 51.3418 396.798 49.348 399.457 50.1282C399.202 51.0817 398.946 52.0353 398.281 52.2954C398.384 53.509 399.355 53.1622 400.02 53.3356C399.406 55.7629 396.389 53.7691 394.804 54.3759C399.764 51.1684 386.163 49.8681 394.804 51.1684C394.958 51.1684 396.645 49.1746 397.105 52.2087L397.156 52.2954ZM25.4135 95.8992C24.0329 95.2924 21.5785 95.3791 20.8115 95.8992C19.482 93.8187 25.4135 92.5184 25.4135 95.8992ZM110.245 125.72C110.245 125.72 111.216 126.413 110.245 126.76C105.694 128.32 98.9951 125.72 106.205 125.72C107.228 125.72 108.608 125.286 110.245 125.72ZM0.562472 162.995C0.869275 161.868 4.34638 163.775 6.34059 162.995C5.93152 166.81 2.14762 163.515 0.562472 162.995ZM48.4749 127.887C50.5713 130.141 46.7874 130.314 45.6114 130.054C45.5091 132.395 47.6567 130.574 48.4749 131.094C48.1169 132.048 47.759 133.001 48.4749 133.261C47.1965 132.568 40.7537 134.388 42.1343 127.974C41.6229 127.8 41.5718 128.407 41.5718 129.014C41.9809 124.333 44.8955 131.268 48.526 127.974L48.4749 127.887Z" fill="url(#paint0_linear_4_2181)"/>
<defs>
<linearGradient id="paint0_linear_4_2181" x1="0" y1="105.955" x2="444.506" y2="105.955" gradientUnits="userSpaceOnUse">
<stop stop-color="#34873C"/>
<stop offset="1" stop-color="#B3CD36"/>
</linearGradient>
</defs>
</svg>
