<svg preserveAspectRatio="none" width="100%" height="100%" overflow="visible" style="display: block;" viewBox="0 0 32 25" fill="none" xmlns="http://www.w3.org/2000/svg">
<path id="Vector" d="M20.8744 11.4384L14.1244 6.93844C13.9549 6.82538 13.7579 6.76045 13.5544 6.75059C13.351 6.74073 13.1486 6.78631 12.969 6.88247C12.7894 6.97862 12.6393 7.12174 12.5347 7.29654C12.4301 7.47135 12.3749 7.67128 12.375 7.87501V16.875C12.3749 17.0787 12.4301 17.2787 12.5347 17.4535C12.6393 17.6283 12.7894 17.7714 12.969 17.8675C13.1486 17.9637 13.351 18.0093 13.5544 17.9994C13.7579 17.9896 13.9549 17.9246 14.1244 17.8116L20.8744 13.3116C21.0287 13.2089 21.1552 13.0696 21.2428 12.9062C21.3303 12.7429 21.3761 12.5604 21.3761 12.375C21.3761 12.1896 21.3303 12.0072 21.2428 11.8438C21.1552 11.6804 21.0287 11.5411 20.8744 11.4384ZM14.625 14.7727V9.98438L18.2222 12.375L14.625 14.7727ZM30.7027 4.15125C30.5702 3.63284 30.3163 3.15335 29.962 2.75236C29.6077 2.35137 29.1631 2.04037 28.665 1.84501C23.8444 -0.0168698 16.1719 5.34927e-06 15.75 5.34927e-06C15.3281 5.34927e-06 7.65562 -0.0168698 2.835 1.84501C2.33685 2.04037 1.8923 2.35137 1.53801 2.75236C1.18372 3.15335 0.929849 3.63284 0.797344 4.15125C0.433125 5.55469 0 8.11969 0 12.375C0 16.6303 0.433125 19.1953 0.797344 20.5988C0.92965 21.1174 1.18343 21.5972 1.53773 21.9984C1.89203 22.3997 2.33669 22.7109 2.835 22.9064C7.45312 24.6881 14.6812 24.75 15.6572 24.75H15.8428C16.8188 24.75 24.0511 24.6881 28.665 22.9064C29.1633 22.7109 29.608 22.3997 29.9623 21.9984C30.3166 21.5972 30.5704 21.1174 30.7027 20.5988C31.0669 19.1925 31.5 16.6303 31.5 12.375C31.5 8.11969 31.0669 5.55469 30.7027 4.15125ZM28.5244 20.0419C28.4815 20.2144 28.3984 20.3743 28.2818 20.5085C28.1652 20.6427 28.0184 20.7474 27.8536 20.8139C23.4028 22.5323 15.833 22.5014 15.7598 22.5014H15.75C15.6741 22.5014 8.10984 22.5295 3.65625 20.8139C3.4914 20.7474 3.34466 20.6427 3.22806 20.5085C3.11146 20.3743 3.02833 20.2144 2.98547 20.0419C2.64375 18.758 2.25 16.3927 2.25 12.375C2.25 8.35735 2.64375 5.99204 2.97562 4.71516C3.01769 4.5416 3.10046 4.38055 3.2171 4.24533C3.33374 4.1101 3.4809 4.00458 3.64641 3.93751C7.93828 2.27954 15.1298 2.25001 15.7191 2.25001H15.757C15.833 2.25001 23.4042 2.22469 27.8508 3.93751C28.0156 4.00404 28.1624 4.10869 28.279 4.24289C28.3956 4.37709 28.4787 4.53701 28.5216 4.70954C28.8563 5.99204 29.25 8.35735 29.25 12.375C29.25 16.3927 28.8562 18.758 28.5244 20.0348V20.0419Z" fill="var(--fill-0, white)"/>
</svg>
